<?xml version="1.0" standalone="no"?>
<!DOCTYPE svg PUBLIC "-//W3C//DTD SVG 20010904//EN"
 "http://www.w3.org/TR/2001/REC-SVG-20010904/DTD/svg10.dtd">
<svg version="1.0" xmlns="http://www.w3.org/2000/svg"
 width="3948.000000pt" height="3948.000000pt" viewBox="0 0 3948.000000 3948.000000"
 preserveAspectRatio="xMidYMid meet">
<metadata>
Created by potrace 1.11, written by Peter Selinger 2001-2013
</metadata>
<g transform="translate(0.000000,3948.000000) scale(0.100000,-0.100000)"
fill="#000000" stroke="none">
<path d="M21895 30213 c-551 -47 -871 -289 -1225 -926 -151 -273 -203 -386
-853 -1872 -577 -1320 -1370 -3130 -2940 -6710 -2214 -5051 -3114 -7107 -3427
-7830 -404 -935 -1522 -3577 -1515 -3583 3 -3 259 1 570 8 555 13 891 10 1070
-10 243 -27 329 -32 435 -26 306 17 508 103 706 300 116 117 204 244 299 434
35 70 241 539 458 1042 1145 2654 2405 5549 5157 11845 1644 3762 2048 4687
2235 5125 330 770 835 1973 830 1978 -6 6 -357 75 -620 121 -506 90 -922 126
-1180 104z"/>
<path d="M16405 30098 c-44 -11 -260 -64 -480 -119 -1991 -491 -3114 -1056
-4135 -2078 -443 -444 -806 -911 -1157 -1491 -264 -436 -551 -1013 -754 -1517
l-53 -133 -35 5 c-157 22 -1598 137 -1807 144 -1608 58 -3187 -393 -4523
-1292 -720 -484 -1376 -1112 -1899 -1819 -796 -1074 -1327 -2391 -1501 -3723
-45 -343 -55 -523 -56 -955 0 -508 22 -798 95 -1240 414 -2508 2026 -4696
4260 -5779 354 -171 621 -276 1085 -426 881 -285 1213 -364 1518 -365 257 0
418 59 587 218 221 206 392 522 761 1407 62 149 154 389 205 535 l92 265 -116
2 c-1554 29 -2758 353 -3728 1003 -479 322 -917 757 -1258 1250 -414 598 -753
1396 -930 2190 -219 982 -113 2045 301 3019 351 828 941 1581 1648 2106 249
186 523 352 866 525 694 351 1321 545 2024 627 113 13 232 17 480 17 334 1
429 -5 690 -44 1182 -175 2308 -801 3413 -1897 85 -84 156 -153 157 -153 12 0
65 116 65 142 0 18 -27 184 -59 369 -75 420 -104 620 -130 874 -112 1105 38
2112 438 2950 359 751 937 1385 1678 1844 414 256 616 407 851 636 496 481
825 1032 1172 1961 65 172 330 946 330 961 0 4 -6 3 -95 -19z"/>
<path d="M30825 27564 c-49 -104 -175 -350 -279 -549 -383 -728 -513 -1052
-583 -1451 -25 -143 -24 -492 1 -629 54 -295 163 -557 357 -855 86 -132 132
-232 163 -351 38 -149 49 -265 42 -434 -16 -370 -115 -1733 -235 -3240 -17
-203 -28 -371 -26 -373 2 -2 141 57 309 132 348 154 581 244 824 316 873 260
1726 275 2524 46 227 -65 423 -143 663 -261 426 -211 743 -441 1101 -799 261
-261 432 -468 621 -751 369 -553 597 -1160 680 -1810 22 -174 25 -679 5 -850
-82 -702 -323 -1348 -750 -2010 -161 -250 -368 -500 -603 -730 -649 -634
-1475 -1013 -2473 -1135 -357 -44 -257 -43 -4649 -47 l-4217 -4 2 -1191 3
-1192 140 -45 140 -44 625 -8 c344 -4 1118 -13 1720 -21 1412 -17 4193 -17
4730 0 883 28 1408 54 1689 82 2567 263 4705 1835 5640 4148 442 1093 589
2359 415 3572 -390 2724 -2342 4822 -5159 5545 -115 29 -298 72 -405 95 -107
23 -229 53 -270 67 -279 94 -437 269 -515 568 -14 54 -41 192 -60 307 -125
742 -303 1339 -585 1958 -319 703 -817 1432 -1362 1994 l-133 137 -90 -187z"/>
</g>
</svg>
