<svg id="Layer_1" data-name="Layer 1" xmlns="http://www.w3.org/2000/svg" viewBox="0 0 1894.4 1005.75"><defs><style>.cls-1{fill:#00e376;}</style></defs><title>icon</title><path class="cls-1" d="M426.78,930.07c-4.84,13.66-7,20.84-9.9,27.75-42,101.43-44,102.35-148.44,68.55C93.58,969.77-15.67,781.55,21.28,600.55,60.14,410.21,228.43,282.32,418,299.05c21.1,1.86,42.21,3.67,67.83,5.9,35.49-89.6,89.34-167.67,179.28-211.76C708.85,71.75,757,59.2,805.6,48,783,115.59,764.74,175.23,697.77,215,606.25,269.41,577.61,363,593.57,468.36c2,13.41,4.7,26.72,6.89,40.11.18,1-1.11,2.34-3.17,6.35-100.42-104.67-216.08-134.05-344.55-59C160.8,509.59,113.11,621.77,138.87,723.47,175.37,867.64,277.45,929.88,426.78,930.07Z" transform="translate(-14.11 -43)"/><path class="cls-1" d="M1180.4,1041.94V927.88h87.77c101.93,0,203.86.65,305.79-.13,92.32-.71,161-42.27,199-126.72,36.3-80.78,15.76-166.74-49.49-229.35-60.9-58.43-147.26-71-232.78-33.89-10.77,4.67-21.44,9.57-23.93,10.68,4.31-56.43,9.4-115.34,12.79-174.35.66-11.56-2.19-25.63-8.63-34.94-46.48-67.18.62-118.14,27-177.51,57,57.7,88.23,123.27,99.84,198.34,3.57,23.07,9.35,36.88,36.76,42.26,173.07,34,282.36,170.75,273.44,338.66-8.73,164.55-137.69,295.2-312,304.28-132,6.88-264.62,1.63-397,1.49C1193.33,1046.7,1187.64,1043.87,1180.4,1041.94Z" transform="translate(-14.11 -43)"/><path class="cls-1" d="M586.86,1047.08c29.78-70,56.33-133.85,84-197.22Q828.55,489.2,986.75,128.77C1026.38,38.14,1040,31.28,1151.24,54c-17.82,42-34.87,83.12-52.68,123.93-120.17,275.44-241.08,550.55-360,826.51-14.24,33-31.43,47.73-67.59,43.24C645.85,1044.56,620.05,1047.08,586.86,1047.08Z" transform="translate(-14.11 -43)"/></svg>