<svg id="Layer_1" data-name="Layer 1" xmlns="http://www.w3.org/2000/svg" viewBox="0 0 1076.2 343.82"><defs><style>.cls-1{fill:#e9e9e9;} .textLgH.cls-1{fill:#e9e9e9;}</style></defs><title>text</title><path class="cls-1" d="M610.79,499.71c23-25.44,50-37.59,82.91-36.1,40.84,1.85,71.8,22.78,76,62.71,6,56.76,4.77,114.27,6.68,172.58H720.5c0-11,.06-21.26,0-31.55-.23-36.57.35-73.17-1-109.7-1-25-16.22-40.74-37.71-42.64-28.85-2.55-48.62,9-55.14,34-2.87,11-3.2,22.9-3.32,34.4-.38,38.16-.14,76.33-.14,115.52H569.78V594.32c0-8.71.08-17.42,0-26.13-.27-33.37-16.3-52.68-44.24-53.39-31.17-.8-51.77,18.55-52.6,51.73-1,38.3-.29,76.65-.33,115v17H420.8V470.34H470q1.2,10.16,2.51,21.28C534.65,451.46,571.16,453.49,610.79,499.71Z" transform="translate(-420.8 -360.52)"/><path class="cls-1" d="M1280.27,654v42.65c-57.36,22.73-108-11-108-71.34V517.54h-65v180.9h-53.43V469.83h118.4v-71.2h53v70h54.54v47.5h-54.29c0,38.06-.76,73.94.33,109.77.51,16.84,12.3,26.47,30,28C1263.22,654.49,1270.79,654,1280.27,654Z" transform="translate(-420.8 -360.52)"/><path class="cls-1" d="M914.51,463.43c-67.15-1.64-123,51.71-124.34,118.69-1.29,68.61,51.51,121.44,122,122,68.65.56,121-51,122-120C1035.08,517.23,983.4,465.14,914.51,463.43Zm-2.06,191.69c-39.2-.21-67.6-30.8-67.32-72.51.24-41.4,29.13-70.57,69.41-70.08,37.22.45,66.67,32.82,66,72.59C979.85,626.2,951.48,655.37,912.45,655.12Z" transform="translate(-420.8 -360.52)"/><path class="cls-1" d="M1495.8,535.88c-1.29-30.43-19-53.46-48.44-64.37-32.27-12-65-11-96.56,2.76-22,9.58-37.74,26-46.52,50.11,13.34,7.59,26.17,14.84,40,22.72,15.85-32.13,41.57-40.84,73.35-34.71,17.11,3.27,29.1,18.47,27,33.31-2.68,19.13-18.15,15.41-31,16.87-23.42,2.68-47.71,3-69.9,9.83-30.91,9.54-44.78,34.74-43.36,67.46,1.22,28.82,19.17,51.64,49.31,60,34.4,9.48,66.35,5.16,93.88-24,.67,9.34,1.15,15.93,1.71,23.28h51.09C1496.43,643.52,1498.07,589.61,1495.8,535.88Zm-69.52,113c-15.65,12.82-34.33,15.86-53.77,9.2-12.16-4.22-20.63-13.8-17.91-26.13,2.05-9.34,9.27-22.8,16.69-24.71,22.93-5.93,47-7.25,71-10.39C1447,620.52,1440.92,636.9,1426.28,648.92Z" transform="translate(-420.8 -360.52)"/><path class="cls-1" d="M1114.13,396.13c-.54,18.77-16.73,34.54-34.9,34-18.47-.57-34.5-16.87-34.36-35,.15-19.09,17.16-35.33,36.25-34.59A34.64,34.64,0,0,1,1114.13,396.13Z" transform="translate(-420.8 -360.52)"/></svg>